<mxfile host="app.diagrams.net" modified="2024-02-29T09:42:06.373Z" agent="Mozilla/5.0 (Macintosh; Intel Mac OS X 10_15_7) AppleWebKit/537.36 (KHTML, like Gecko) Chrome/117.0.0.0 Safari/537.36" etag="wKrsDjgfL-tMf9K4LrgI" version="23.1.8" type="github">
  <diagram name="Page-1" id="3FrjBSHcziRyEW-nKFCQ">
    <mxGraphModel dx="1194" dy="662" grid="1" gridSize="10" guides="1" tooltips="1" connect="1" arrows="1" fold="1" page="1" pageScale="1" pageWidth="850" pageHeight="1100" math="0" shadow="0">
      <root>
        <mxCell id="0" />
        <mxCell id="1" parent="0" />
        <mxCell id="37Gu7Rog72p8xTz9le5O-3" style="edgeStyle=orthogonalEdgeStyle;rounded=0;orthogonalLoop=1;jettySize=auto;html=1;entryX=0.5;entryY=0;entryDx=0;entryDy=0;" edge="1" parent="1" source="37Gu7Rog72p8xTz9le5O-1" target="37Gu7Rog72p8xTz9le5O-2">
          <mxGeometry relative="1" as="geometry" />
        </mxCell>
        <mxCell id="37Gu7Rog72p8xTz9le5O-1" value="Blog(web server, github pages)" style="rounded=0;whiteSpace=wrap;html=1;" vertex="1" parent="1">
          <mxGeometry x="280" y="60" width="120" height="60" as="geometry" />
        </mxCell>
        <mxCell id="37Gu7Rog72p8xTz9le5O-7" value="" style="edgeStyle=orthogonalEdgeStyle;rounded=0;orthogonalLoop=1;jettySize=auto;html=1;" edge="1" parent="1" source="37Gu7Rog72p8xTz9le5O-2" target="37Gu7Rog72p8xTz9le5O-6">
          <mxGeometry relative="1" as="geometry" />
        </mxCell>
        <mxCell id="37Gu7Rog72p8xTz9le5O-2" value="Blog Service&lt;br&gt;(GraphQL)" style="rounded=0;whiteSpace=wrap;html=1;" vertex="1" parent="1">
          <mxGeometry x="280" y="190" width="120" height="60" as="geometry" />
        </mxCell>
        <mxCell id="37Gu7Rog72p8xTz9le5O-5" value="fetch" style="text;html=1;align=center;verticalAlign=middle;resizable=0;points=[];autosize=1;strokeColor=none;fillColor=none;" vertex="1" parent="1">
          <mxGeometry x="350" y="138" width="50" height="30" as="geometry" />
        </mxCell>
        <mxCell id="37Gu7Rog72p8xTz9le5O-10" value="" style="edgeStyle=orthogonalEdgeStyle;rounded=0;orthogonalLoop=1;jettySize=auto;html=1;" edge="1" parent="1" source="37Gu7Rog72p8xTz9le5O-6" target="37Gu7Rog72p8xTz9le5O-9">
          <mxGeometry relative="1" as="geometry" />
        </mxCell>
        <mxCell id="37Gu7Rog72p8xTz9le5O-6" value="Algorithms template api sevice" style="whiteSpace=wrap;html=1;rounded=0;" vertex="1" parent="1">
          <mxGeometry x="280" y="310" width="120" height="60" as="geometry" />
        </mxCell>
        <mxCell id="37Gu7Rog72p8xTz9le5O-9" value="Github repo" style="whiteSpace=wrap;html=1;rounded=0;" vertex="1" parent="1">
          <mxGeometry x="280" y="430" width="120" height="60" as="geometry" />
        </mxCell>
        <mxCell id="37Gu7Rog72p8xTz9le5O-11" value="fetch" style="text;html=1;align=center;verticalAlign=middle;resizable=0;points=[];autosize=1;strokeColor=none;fillColor=none;" vertex="1" parent="1">
          <mxGeometry x="350" y="380" width="50" height="30" as="geometry" />
        </mxCell>
      </root>
    </mxGraphModel>
  </diagram>
</mxfile>
